<?xml version="1.0" encoding="utf-8"?>
<!-- Generator: Adobe Illustrator 19.2.1, SVG Export Plug-In . SVG Version: 6.00 Build 0)  -->
<svg version="1.1" id="Layer_2" xmlns="http://www.w3.org/2000/svg" xmlns:xlink="http://www.w3.org/1999/xlink" x="0px" y="0px"
	 viewBox="0 0 416.7 99.1" style="enable-background:new 0 0 416.7 99.1;" xml:space="preserve">
<style type="text/css">
	.st0{fill:#866EB0;}
	.st1{fill:#30C2E6;}
</style>
<path class="st0" d="M72.8,29.8H55.1v55.4H44.9V29.8H27.2v-9h45.6V29.8z"/>
<path class="st0" d="M226.5,29.8h-17.7v55.4h-10.2V29.8h-17.7v-9h45.6V29.8z"/>
<path class="st0" d="M272.8,85.2h-27h-10V20.8h10.1v55.3h26.9V85.2z"/>
<path class="st0" d="M285.6,80.1c-2.5-1.9-4.4-4.3-5.7-6.9c-1.5-3-2.2-6.2-2.2-9.8V20.8h10.1v42.5c0,3.8,1.4,6.8,4,8.8
	c2.4,1.9,6,3,9.8,3c3.7,0,7.3-1.1,9.8-3c2.6-2,3.9-4.9,3.9-8.8V20.8h10.2v42.5c0,3.6-0.8,6.9-2.2,9.8c-1.4,2.7-3.3,5-5.7,6.9
	c-4.3,3.3-9.9,5.1-16,5.1C295.5,85.2,289.8,83.4,285.6,80.1z"/>
<path class="st0" d="M370.4,72.3c-1.8,6.2-7.5,11.2-14.5,12.6c-1.3,0.3-2.6,0.3-3.9,0.3c-2.6,0-5.2-0.4-7.6-1.4
	c-4.1-1.6-7.6-4.3-10.7-8.2l8-6.2c1.8,2.4,4,4.2,6.3,5c1.9,0.8,4,1,5.9,0.5c3.3-0.6,6-2.8,6.8-5.4c0.9-3-1.1-5.6-3-7.3
	c-2.9-2.7-7.5-7.3-7.9-7.6l-7.9-7.5c-2.4-2.3-4.1-4.9-4.9-7.7c-0.9-2.7-1-5.6-0.2-8.2c0.8-2.8,2.4-5.2,4.8-7.2
	c2.2-1.8,4.9-3.1,7.7-3.6c3.1-0.7,6.4-0.4,9.5,0.7c3.3,1.3,6.2,3.5,8.8,6.5l-7.9,6.3c-3.3-4-6.7-4-8.5-3.6c-2.3,0.4-4.2,1.9-4.7,3.7
	c-0.3,1.2-0.3,3.2,2.4,5.8l10.8,10.3c1.6,1.6,3.5,3.4,4.9,4.7c2.8,2.5,4.7,5.4,5.6,8.4C371.2,66.2,371.3,69.3,370.4,72.3z"/>
<path class="st1" d="M180.6,43.7c-1.5-3.4-3.5-6.5-6.1-9.2c-2.7-2.6-5.8-4.7-9.2-6.1c-3.6-1.5-7.4-2.3-11.3-2.3
	c-3.9,0-7.7,0.8-11.2,2.3c-3.5,1.5-5.3,2.4-7.9,5l5.4,7.3c3.7-3.5,8.5-5.5,13.7-5.5c5.3,0,10.3,2.1,14,5.8c3.7,3.7,5.8,8.7,5.8,14
	s-2.1,10.3-5.8,14c-3.7,3.7-8.7,5.8-14,5.8c-5.3,0-10.3-2.1-14-5.8c-3.7-3.7-7.1-11.6-9.2-16.5c-3.8-8.5-6.6-12.3-9.7-15.8
	c-0.6-0.7-1.2-1.5-1.9-2.2c-0.2-0.2-0.5-0.4-0.8-0.7c-0.1-0.1-0.2-0.2-0.2-0.3l0,0c-2.5-2.2-5.2-4-8.2-5.3
	c-3.6-1.5-7.4-2.3-11.3-2.3c-3.9,0-7.7,0.8-11.2,2.3c-3.5,1.5-6.5,3.5-9.2,6.1c-2.6,2.7-4.7,5.8-6.2,9.2c-1.5,3.6-2.3,7.4-2.3,11.3
	c0,3.9,0.8,7.7,2.3,11.2c1.5,3.5,3.6,6.5,6.2,9.2c2.6,2.6,5.7,4.7,9.2,6.2c3.5,1.5,7.3,2.3,11.2,2.3c3.9,0,7.7-0.8,11.3-2.3
	c3.4-1.5,8.6-5.1,8.6-5.1l-5.8-7.5c-3.7,3.7-8.7,5.8-14,5.8s-10.3-2.1-14-5.8c-3.7-3.7-5.8-8.7-5.8-14s2.1-10.3,5.8-14
	c3.7-3.7,8.7-5.8,14-5.8s10.3,2.1,14,5.8c2.1,2.1,3.7,4.5,6.5,9.6c1.9,3.4,4.8,8.6,10,19c0.7,1.1,1.4,2.2,2.2,3.2
	c0.1,0.1,0.2,0.2,0.2,0.3l0,0c0.6,0.8,1.3,1.5,2,2.2c2.6,2.6,5.7,4.7,9.2,6.2c3.5,1.5,7.3,2.3,11.2,2.3c3.9,0,7.7-0.8,11.3-2.3
	c3.4-1.5,6.5-3.6,9.2-6.2c2.6-2.6,4.7-5.7,6.1-9.2c1.5-3.5,2.3-7.3,2.3-11.2C182.9,51.1,182.1,47.3,180.6,43.7z"/>
<polygon class="st1" points="397,25.3 375.5,25.3 386.3,14.6 "/>
</svg>
