<?xml version="1.0" encoding="utf-8"?>
<!-- Generator: Adobe Illustrator 19.2.1, SVG Export Plug-In . SVG Version: 6.00 Build 0)  -->
<svg version="1.1" id="Layer_1" xmlns="http://www.w3.org/2000/svg" xmlns:xlink="http://www.w3.org/1999/xlink" x="0px" y="0px"
	 viewBox="0 0 416.7 99.1" style="enable-background:new 0 0 416.7 99.1;" xml:space="preserve">
<style type="text/css">
	.st0{fill:#886EB1;}
	.st1{fill:#31C3E6;}
	.st2{fill:#30C3E6;}
</style>
<path class="st0" d="M51.9,31.1h-17v53.1h-9.7V31.1h-17v-8.6h43.7V31.1z"/>
<path class="st0" d="M72,81.8c-3.7-1.6-7-3.8-9.8-6.7c-2.8-2.8-5.1-6.1-6.7-9.8c-1.6-3.7-2.4-7.8-2.4-12c0-4.2,0.8-8.2,2.4-12.1
	c1.6-3.7,3.8-6.9,6.7-9.8c2.8-2.8,6.1-5,9.8-6.6c3.7-1.6,7.8-2.4,12-2.4c4.2,0,8.2,0.8,12.1,2.4c3.7,1.6,6.9,3.7,9.8,6.6
	c2.8,2.9,5,6.2,6.6,9.8c1.6,3.8,2.4,7.9,2.4,12.1c0,4.2-0.8,8.2-2.4,12c-1.6,3.7-3.7,7-6.6,9.8c-2.9,2.8-6.2,5.1-9.8,6.7
	c-3.8,1.6-7.9,2.4-12.1,2.4C79.8,84.2,75.7,83.4,72,81.8z M69,38.4c-4,4-6.2,9.3-6.2,15s2.2,11,6.2,15c4,4,9.3,6.2,15,6.2
	s11-2.2,15-6.2c4-4,6.2-9.3,6.2-15s-2.2-11-6.2-15c-4-4-9.3-6.2-15-6.2S73,34.4,69,38.4z"/>
<path class="st0" d="M139.3,81.8c-3.7-1.6-7-3.8-9.8-6.7c-2.8-2.8-5.1-6.1-6.7-9.8c-1.6-3.7-2.4-7.8-2.4-12c0-4.2,0.8-8.2,2.4-12.1
	c1.6-3.7,3.8-6.9,6.7-9.8c2.8-2.8,6.1-5,9.8-6.6c3.7-1.6,7.8-2.4,12-2.4c4.2,0,8.2,0.8,12.1,2.4c3.7,1.6,6.9,3.7,9.8,6.6
	c2.8,2.9,5,6.2,6.6,9.8c1.6,3.8,2.4,7.9,2.4,12.1c0,4.2-0.8,8.2-2.4,12c-1.6,3.7-3.7,7-6.6,9.8c-2.9,2.8-6.2,5.1-9.8,6.7
	c-3.8,1.6-7.9,2.4-12.1,2.4C147.1,84.2,143,83.4,139.3,81.8z M136.3,38.4c-4,4-6.2,9.3-6.2,15s2.2,11,6.2,15c4,4,9.3,6.2,15,6.2
	c5.7,0,11-2.2,15-6.2c4-4,6.2-9.3,6.2-15s-2.2-11-6.2-15c-4-4-9.3-6.2-15-6.2C145.6,32.1,140.3,34.4,136.3,38.4z"/>
<path class="st1" d="M187.5,84.2l24-52.1h-23.8v-9.6h38.9l-28.4,61.7H187.5z"/>
<path class="st0" d="M271,84.2h-25.9h-9.6V22.5h9.6v53H271V84.2z"/>
<path class="st0" d="M285,79.3c-2.4-1.8-4.2-4.1-5.5-6.7c-1.4-2.8-2.1-6-2.1-9.4V22.5h9.6v40.7c0,3.7,1.3,6.5,3.8,8.4
	c2.3,1.8,5.7,2.9,9.4,2.9c3.6,0,7-1.1,9.4-2.9c2.5-1.9,3.7-4.7,3.7-8.4V22.5h9.7v40.7c0,3.4-0.7,6.6-2.1,9.4
	c-1.3,2.6-3.2,4.8-5.5,6.7c-4.1,3.2-9.5,4.9-15.3,4.9C294.5,84.2,289.1,82.4,285,79.3z"/>
<path class="st2" d="M352,84.2c-6.3-0.2-13-2.7-19.7-7.4l5.4-8c5.2,3.6,10.3,5.6,14.7,5.7c3.4,0.2,6.4-0.7,8.6-2.7
	c1.7-1.4,3-3.4,3.6-5.6c0.5-2.2,0.4-4.3-0.4-6.2c-1.1-2.3-3.2-4.2-6.1-5.4c-3.9-1.7-9.2-2-15.4-1.2l-6.2,0.9l4-31.9H370v9.6h-21
	l-1.4,11.4c5.4-0.2,10.1,0.7,14.2,2.3c5.2,2.2,9.1,5.7,11.1,10.4c3.5,7.9,1.2,17.5-5.7,23.1c-3.9,3.2-8.7,4.9-14.1,4.9
	C352.7,84.2,352.3,84.2,352,84.2z"/>
<g>
	<rect x="396.7" y="37.1" class="st1" width="7.5" height="32.5"/>
	<rect x="384.2" y="49.6" class="st1" width="32.5" height="7.5"/>
</g>
</svg>
